<?xml version="1.0" encoding="UTF-8" standalone="no"?>
<svg
   xmlns:dc="http://purl.org/dc/elements/1.1/"
   xmlns:cc="http://creativecommons.org/ns#"
   xmlns:rdf="http://www.w3.org/1999/02/22-rdf-syntax-ns#"
   xmlns:svg="http://www.w3.org/2000/svg"
   xmlns="http://www.w3.org/2000/svg"
   xmlns:sodipodi="http://sodipodi.sourceforge.net/DTD/sodipodi-0.dtd"
   xmlns:inkscape="http://www.inkscape.org/namespaces/inkscape"
   width="154.02692mm"
   height="29.556034mm"
   viewBox="0 0 154.02691 29.556035"
   version="1.1"
   id="svg8"
   inkscape:version="1.0.1 (3bc2e813f5, 2020-09-07)"
   sodipodi:docname="logotext.svg">
  <defs
     id="defs2" />
  <sodipodi:namedview
     id="base"
     pagecolor="#ffffff"
     bordercolor="#666666"
     borderopacity="1.0"
     inkscape:pageopacity="0.0"
     inkscape:pageshadow="2"
     inkscape:zoom="0.7"
     inkscape:cx="335.93983"
     inkscape:cy="-188.15196"
     inkscape:document-units="mm"
     inkscape:current-layer="layer1"
     inkscape:document-rotation="0"
     showgrid="false"
     fit-margin-top="0"
     fit-margin-left="0"
     fit-margin-right="0"
     fit-margin-bottom="0"
     inkscape:window-width="1920"
     inkscape:window-height="1017"
     inkscape:window-x="-8"
     inkscape:window-y="-8"
     inkscape:window-maximized="1" />
  <metadata
     id="metadata5">
    <rdf:RDF>
      <cc:Work
         rdf:about="">
        <dc:format>image/svg+xml</dc:format>
        <dc:type
           rdf:resource="http://purl.org/dc/dcmitype/StillImage" />
        <dc:title></dc:title>
      </cc:Work>
    </rdf:RDF>
  </metadata>
  <g
     inkscape:label="Layer 1"
     inkscape:groupmode="layer"
     id="layer1"
     transform="translate(-16.950834,-220.93418)">
    <g
       id="g1416"
       transform="translate(-23.277201,357.31973)">
      <g
         id="g2284">
        <text
           xml:space="preserve"
           style="font-style:normal;font-variant:normal;font-weight:normal;font-stretch:normal;font-size:37.5501px;line-height:1.25;font-family:'Dabre Grunge';-inkscape-font-specification:'Dabre Grunge';letter-spacing:-3.91146px;word-spacing:0px;fill:#000000;fill-opacity:1;stroke:none;stroke-width:0.722247"
           x="41.860405"
           y="-106.82951"
           id="text913-8-9-1"><tspan
             sodipodi:role="line"
             id="tspan911-9-4-8"
             x="41.860405"
             y="-106.82951"
             style="font-style:normal;font-variant:normal;font-weight:bold;font-stretch:normal;font-size:37.5501px;font-family:'Lemon Milk';-inkscape-font-specification:'Lemon Milk Bold';fill:#ffffff;fill-opacity:1;stroke-width:0.722247"
             dx="0">   <tspan
   id="tspan1025-2-5-1"
   style="letter-spacing:-7.82293px;stroke-width:0.722247">V</tspan>RP<tspan
   style="letter-spacing:-11.7344px;stroke-width:0.722247"
   id="tspan1007-3-6-2">L</tspan><tspan
   style="letter-spacing:-5.8672px;stroke-width:0.722247"
   id="tspan1023-3-5-4">YD</tspan></tspan></text>
        <path
           id="path1604-7"
           style="fill:#ffffff;fill-opacity:1;stroke:none;stroke-width:1.43224;stroke-linecap:round;stroke-linejoin:round;stroke-miterlimit:4;stroke-dasharray:none;stroke-opacity:1;paint-order:stroke fill markers;stop-color:#000000"
           d="m 207.89648,-515.47266 a 55.853889,55.853889 0 0 0 -27.54882,7.26758 l 26.00195,15.01367 a 33.605595,33.605595 0 0 1 1.43359,-0.0332 33.605595,33.605595 0 0 1 29.79102,18.05859 l 26.17578,15.11329 a 55.853889,55.853889 0 0 0 -55.85352,-55.41993 z m -28.47265,7.80274 a 55.853889,55.853889 0 0 0 -27.38086,48.05078 55.853889,55.853889 0 0 0 27.38086,48.05078 v -30.01953 a 33.605595,33.605595 0 0 1 -5.2461,-18.03125 33.605595,33.605595 0 0 1 5.2461,-18.03125 z m 84.32422,48.48633 -26.17188,15.11132 a 33.605595,33.605595 0 0 1 -29.79297,18.0586 33.605595,33.605595 0 0 1 -1.43359,-0.0293 l -26.00195,15.01172 a 55.853889,55.853889 0 0 0 27.54882,7.26563 55.853889,55.853889 0 0 0 55.85157,-55.41797 z"
           transform="scale(0.26458333)" />
        <path
           id="path1604"
           style="fill:#de0000;fill-opacity:1;stroke:none;stroke-width:1.43224;stroke-linecap:round;stroke-linejoin:round;stroke-miterlimit:4;stroke-dasharray:none;stroke-opacity:1;paint-order:stroke fill markers;stop-color:#000000"
           d="m 179.42383,-507.66992 a 55.853885,55.853885 0 0 0 -27.38086,48.05078 55.853885,55.853885 0 0 0 27.38086,48.05078 v -30.01953 a 33.605595,33.605595 0 0 1 -5.2461,-18.03125 33.605595,33.605595 0 0 1 5.2461,-18.03125 z"
           transform="scale(0.26458333)" />
        <path
           sodipodi:type="star"
           style="fill:#787878;fill-opacity:1;stroke:none;stroke-width:1.37505;stroke-linecap:round;stroke-linejoin:round;stroke-miterlimit:4;stroke-dasharray:none;paint-order:fill markers stroke"
           id="path894-3-7-3-5-9-7"
           sodipodi:sides="3"
           sodipodi:cx="55.005943"
           sodipodi:cy="-121.60756"
           sodipodi:r1="6.7943907"
           sodipodi:r2="3.3971953"
           sodipodi:arg1="0"
           sodipodi:arg2="1.0471976"
           inkscape:flatsided="true"
           inkscape:rounded="0"
           inkscape:randomized="0"
           inkscape:transform-center-x="-1.1660865"
           d="m 61.800334,-121.60756 -10.191586,5.88412 v -11.76823 z" />
      </g>
    </g>
  </g>
</svg>
